<svg width="309" height="300" viewBox="0 0 309 300" fill="none" xmlns="http://www.w3.org/2000/svg">
<rect width="308.5" height="300" rx="8" fill="#3662E3"/>
<path d="M74.2035 135.115C74.5955 135.115 75.0015 135.227 75.4215 135.451C75.8695 135.647 76.2055 135.913 76.4295 136.249L86.6355 151.957L84.5355 151.873L94.9935 136.249C95.5255 135.493 96.2115 135.115 97.0515 135.115C97.7235 135.115 98.3255 135.353 98.8575 135.829C99.3895 136.305 99.6555 136.921 99.6555 137.677V161.995C99.6555 162.723 99.4175 163.339 98.9415 163.843C98.4655 164.319 97.8355 164.557 97.0515 164.557C96.2675 164.557 95.6235 164.319 95.1195 163.843C94.6435 163.339 94.4055 162.723 94.4055 161.995V142.213L96.0435 142.591L87.4755 155.653C87.2235 155.961 86.9015 156.227 86.5095 156.451C86.1455 156.675 85.7675 156.773 85.3755 156.745C85.0115 156.773 84.6335 156.675 84.2415 156.451C83.8775 156.227 83.5695 155.961 83.3175 155.653L75.2955 142.969L76.3875 140.743V161.995C76.3875 162.723 76.1635 163.339 75.7155 163.843C75.2675 164.319 74.6795 164.557 73.9515 164.557C73.2515 164.557 72.6775 164.319 72.2295 163.843C71.7815 163.339 71.5575 162.723 71.5575 161.995V137.677C71.5575 136.977 71.8095 136.375 72.3135 135.871C72.8455 135.367 73.4755 135.115 74.2035 135.115ZM125.206 141.667C125.934 141.667 126.536 141.905 127.012 142.381C127.488 142.857 127.726 143.473 127.726 144.229V161.995C127.726 162.723 127.488 163.339 127.012 163.843C126.536 164.319 125.934 164.557 125.206 164.557C124.478 164.557 123.876 164.319 123.4 163.843C122.924 163.339 122.686 162.723 122.686 161.995V159.937L123.61 160.315C123.61 160.679 123.414 161.127 123.022 161.659C122.63 162.163 122.098 162.667 121.426 163.171C120.754 163.675 119.956 164.109 119.032 164.473C118.136 164.809 117.156 164.977 116.092 164.977C114.16 164.977 112.41 164.487 110.842 163.507C109.274 162.499 108.028 161.127 107.104 159.391C106.208 157.627 105.76 155.611 105.76 153.343C105.76 151.047 106.208 149.031 107.104 147.295C108.028 145.531 109.26 144.159 110.8 143.179C112.34 142.171 114.048 141.667 115.924 141.667C117.128 141.667 118.234 141.849 119.242 142.213C120.25 142.577 121.118 143.039 121.846 143.599C122.602 144.159 123.176 144.733 123.568 145.321C123.988 145.881 124.198 146.357 124.198 146.749L122.686 147.295V144.229C122.686 143.501 122.924 142.899 123.4 142.423C123.876 141.919 124.478 141.667 125.206 141.667ZM116.722 160.357C117.954 160.357 119.032 160.049 119.956 159.433C120.88 158.817 121.594 157.977 122.098 156.913C122.63 155.849 122.896 154.659 122.896 153.343C122.896 151.999 122.63 150.795 122.098 149.731C121.594 148.667 120.88 147.827 119.956 147.211C119.032 146.595 117.954 146.287 116.722 146.287C115.518 146.287 114.454 146.595 113.53 147.211C112.606 147.827 111.878 148.667 111.346 149.731C110.842 150.795 110.59 151.999 110.59 153.343C110.59 154.659 110.842 155.849 111.346 156.913C111.878 157.977 112.606 158.817 113.53 159.433C114.454 160.049 115.518 160.357 116.722 160.357ZM146.455 141.667C148.527 141.667 150.095 142.101 151.159 142.969C152.251 143.837 152.993 144.999 153.385 146.455C153.805 147.883 154.015 149.479 154.015 151.243V161.995C154.015 162.723 153.777 163.339 153.301 163.843C152.825 164.319 152.223 164.557 151.495 164.557C150.767 164.557 150.165 164.319 149.689 163.843C149.213 163.339 148.975 162.723 148.975 161.995V151.243C148.975 150.319 148.849 149.493 148.597 148.765C148.373 148.009 147.953 147.407 147.337 146.959C146.721 146.511 145.839 146.287 144.691 146.287C143.571 146.287 142.619 146.511 141.835 146.959C141.079 147.407 140.491 148.009 140.071 148.765C139.679 149.493 139.483 150.319 139.483 151.243V161.995C139.483 162.723 139.245 163.339 138.769 163.843C138.293 164.319 137.691 164.557 136.963 164.557C136.235 164.557 135.633 164.319 135.157 163.843C134.681 163.339 134.443 162.723 134.443 161.995V144.649C134.443 143.921 134.681 143.319 135.157 142.843C135.633 142.339 136.235 142.087 136.963 142.087C137.691 142.087 138.293 142.339 138.769 142.843C139.245 143.319 139.483 143.921 139.483 144.649V146.455L138.853 146.329C139.105 145.853 139.469 145.349 139.945 144.817C140.421 144.257 140.981 143.739 141.625 143.263C142.269 142.787 142.997 142.409 143.809 142.129C144.621 141.821 145.503 141.667 146.455 141.667ZM171.306 164.977C168.926 164.977 166.854 164.487 165.09 163.507C163.354 162.499 162.01 161.141 161.058 159.433C160.134 157.725 159.672 155.793 159.672 153.637C159.672 151.117 160.176 148.975 161.184 147.211C162.22 145.419 163.564 144.047 165.216 143.095C166.868 142.143 168.618 141.667 170.466 141.667C171.894 141.667 173.238 141.961 174.498 142.549C175.786 143.137 176.92 143.949 177.9 144.985C178.88 145.993 179.65 147.169 180.21 148.513C180.798 149.857 181.092 151.285 181.092 152.797C181.064 153.469 180.798 154.015 180.294 154.435C179.79 154.855 179.202 155.065 178.53 155.065H162.486L161.226 150.865H176.64L175.716 151.705V150.571C175.66 149.759 175.366 149.031 174.834 148.387C174.33 147.743 173.686 147.239 172.902 146.875C172.146 146.483 171.334 146.287 170.466 146.287C169.626 146.287 168.842 146.399 168.114 146.623C167.386 146.847 166.756 147.225 166.224 147.757C165.692 148.289 165.272 149.003 164.964 149.899C164.656 150.795 164.502 151.929 164.502 153.301C164.502 154.813 164.81 156.101 165.426 157.165C166.07 158.201 166.882 158.999 167.862 159.559C168.87 160.091 169.934 160.357 171.054 160.357C172.09 160.357 172.916 160.273 173.532 160.105C174.148 159.937 174.638 159.741 175.002 159.517C175.394 159.265 175.744 159.055 176.052 158.887C176.556 158.635 177.032 158.509 177.48 158.509C178.096 158.509 178.6 158.719 178.992 159.139C179.412 159.559 179.622 160.049 179.622 160.609C179.622 161.365 179.23 162.051 178.446 162.667C177.718 163.283 176.696 163.829 175.38 164.305C174.064 164.753 172.706 164.977 171.306 164.977ZM189.276 164.557C188.548 164.557 187.946 164.319 187.47 163.843C186.994 163.339 186.756 162.723 186.756 161.995V144.649C186.756 143.921 186.994 143.319 187.47 142.843C187.946 142.339 188.548 142.087 189.276 142.087C190.004 142.087 190.606 142.339 191.082 142.843C191.558 143.319 191.796 143.921 191.796 144.649V148.597L191.502 145.783C191.81 145.111 192.202 144.523 192.678 144.019C193.182 143.487 193.742 143.053 194.358 142.717C194.974 142.353 195.632 142.087 196.332 141.919C197.032 141.751 197.732 141.667 198.432 141.667C199.272 141.667 199.972 141.905 200.532 142.381C201.12 142.857 201.414 143.417 201.414 144.061C201.414 144.985 201.176 145.657 200.7 146.077C200.224 146.469 199.706 146.665 199.146 146.665C198.614 146.665 198.124 146.567 197.676 146.371C197.256 146.175 196.766 146.077 196.206 146.077C195.702 146.077 195.184 146.203 194.652 146.455C194.148 146.679 193.672 147.043 193.224 147.547C192.804 148.051 192.454 148.681 192.174 149.437C191.922 150.165 191.796 151.033 191.796 152.041V161.995C191.796 162.723 191.558 163.339 191.082 163.843C190.606 164.319 190.004 164.557 189.276 164.557ZM206.479 142.507H216.433C217.105 142.507 217.665 142.731 218.113 143.179C218.561 143.627 218.785 144.187 218.785 144.859C218.785 145.503 218.561 146.049 218.113 146.497C217.665 146.917 217.105 147.127 216.433 147.127H206.479C205.807 147.127 205.247 146.903 204.799 146.455C204.351 146.007 204.127 145.447 204.127 144.775C204.127 144.131 204.351 143.599 204.799 143.179C205.247 142.731 205.807 142.507 206.479 142.507ZM210.973 137.257C211.701 137.257 212.289 137.509 212.737 138.013C213.213 138.489 213.451 139.091 213.451 139.819V158.509C213.451 158.901 213.521 159.223 213.661 159.475C213.829 159.727 214.039 159.909 214.291 160.021C214.571 160.133 214.865 160.189 215.173 160.189C215.509 160.189 215.817 160.133 216.097 160.021C216.377 159.881 216.699 159.811 217.063 159.811C217.455 159.811 217.805 159.993 218.113 160.357C218.449 160.721 218.617 161.225 218.617 161.869C218.617 162.653 218.183 163.297 217.315 163.801C216.475 164.305 215.565 164.557 214.585 164.557C213.997 164.557 213.339 164.515 212.611 164.431C211.911 164.319 211.239 164.081 210.595 163.717C209.979 163.325 209.461 162.737 209.041 161.953C208.621 161.169 208.411 160.091 208.411 158.719V139.819C208.411 139.091 208.649 138.489 209.125 138.013C209.629 137.509 210.245 137.257 210.973 137.257ZM241.346 142.087C242.074 142.087 242.676 142.339 243.152 142.843C243.628 143.319 243.866 143.921 243.866 144.649V162.499C243.866 165.075 243.376 167.119 242.396 168.631C241.444 170.171 240.156 171.277 238.532 171.949C236.908 172.621 235.088 172.957 233.072 172.957C232.176 172.957 231.224 172.887 230.216 172.747C229.208 172.607 228.382 172.397 227.738 172.117C226.898 171.753 226.31 171.291 225.974 170.731C225.666 170.199 225.61 169.625 225.806 169.009C226.058 168.197 226.464 167.637 227.024 167.329C227.584 167.049 228.172 167.021 228.788 167.245C229.236 167.385 229.824 167.595 230.552 167.875C231.28 168.183 232.12 168.337 233.072 168.337C234.36 168.337 235.424 168.155 236.264 167.791C237.132 167.455 237.776 166.867 238.196 166.027C238.644 165.215 238.868 164.095 238.868 162.667V159.853L239.75 160.861C239.274 161.785 238.672 162.555 237.944 163.171C237.244 163.759 236.404 164.207 235.424 164.515C234.444 164.823 233.324 164.977 232.064 164.977C230.58 164.977 229.278 164.641 228.158 163.969C227.066 163.269 226.212 162.317 225.596 161.113C224.98 159.881 224.672 158.481 224.672 156.913V144.649C224.672 143.921 224.91 143.319 225.386 142.843C225.862 142.339 226.464 142.087 227.192 142.087C227.92 142.087 228.522 142.339 228.998 142.843C229.474 143.319 229.712 143.921 229.712 144.649V155.401C229.712 157.221 230.104 158.509 230.888 159.265C231.7 159.993 232.82 160.357 234.248 160.357C235.228 160.357 236.054 160.175 236.726 159.811C237.398 159.419 237.916 158.859 238.28 158.131C238.644 157.375 238.826 156.465 238.826 155.401V144.649C238.826 143.921 239.064 143.319 239.54 142.843C240.016 142.339 240.618 142.087 241.346 142.087Z" fill="white"/>
</svg>
