<svg width="48" height="48" viewBox="0 0 48 48" fill="none" xmlns="http://www.w3.org/2000/svg">
<path d="M24 0C35.1162 0 40.6748 0.000283658 44.2061 3.35645C44.3556 3.49855 44.5014 3.64444 44.6436 3.79395C47.9997 7.32515 48 12.8838 48 24C48 35.1162 47.9997 40.6748 44.6436 44.2061C44.5014 44.3556 44.3556 44.5014 44.2061 44.6436C40.6748 47.9997 35.1162 48 24 48C12.8838 48 7.32515 47.9997 3.79395 44.6436C3.64444 44.5014 3.49855 44.3556 3.35645 44.2061C0.000283658 40.6748 0 35.1162 0 24C0 12.8838 0.00028378 7.32515 3.35645 3.79395C3.49855 3.64444 3.64444 3.49855 3.79395 3.35645C7.32515 0.00028378 12.8838 0 24 0ZM18.9746 19.1104L11.4482 16.7939L17.1689 22.5127L6.2793 25.9756L17.1689 27.4248L13.8545 35.1787L20.7246 29.8809L23.1768 42.3096L26.2539 31.6865L35.3389 38.1074L29.9229 29.8809L40.5381 29.4248L31.4131 24.6729L39.6768 17.5391L29.5381 20.6787L31.6621 9.1543L24.1318 17.5391L19.8916 8.42773L18.9746 19.1104Z" fill="#31243D"/>
</svg>
