<svg width="104" height="104" viewBox="0 0 104 104" fill="none" xmlns="http://www.w3.org/2000/svg">
<g filter="url(#filter0_d_668_10749)">
<mask id="path-1-outside-1_668_10749" maskUnits="userSpaceOnUse" x="-7.89459" y="-11.7233" width="119.81" height="119.81" fill="black">
<rect fill="white" x="-7.89459" y="-11.7233" width="119.81" height="119.81"/>
<path d="M64.5287 33.9075L87.3229 22.9491L93.4749 35.7459L70.6372 46.7252L94.6269 55.1375L89.7981 68.9081L66.0406 60.5773L76.9451 83.2594L63.8335 89.5629L52.9505 66.9256L44.6313 90.6499L30.7952 85.7981L39.1962 61.8406L16.402 72.799L10.2499 60.0023L33.0889 49.0223L9.09827 40.6097L13.9271 26.8391L37.6837 35.1696L26.7797 12.4887L39.8914 6.18523L50.7744 28.8226L59.0936 5.09827L72.9297 9.95008L64.5287 33.9075Z"/>
</mask>
<path d="M64.5287 33.9075L87.3229 22.9491L93.4749 35.7459L70.6372 46.7252L94.6269 55.1375L89.7981 68.9081L66.0406 60.5773L76.9451 83.2594L63.8335 89.5629L52.9505 66.9256L44.6313 90.6499L30.7952 85.7981L39.1962 61.8406L16.402 72.799L10.2499 60.0023L33.0889 49.0223L9.09827 40.6097L13.9271 26.8391L37.6837 35.1696L26.7797 12.4887L39.8914 6.18523L50.7744 28.8226L59.0936 5.09827L72.9297 9.95008L64.5287 33.9075Z" fill="#FF6F00"/>
<path d="M64.5287 33.9075L60.7541 32.5839L57.5585 41.6967L66.2618 37.5125L64.5287 33.9075ZM87.3229 22.9491L90.9279 21.216L89.1948 17.611L85.5897 19.3441L87.3229 22.9491ZM93.4749 35.7459L95.2081 39.3509L98.8131 37.6178L97.08 34.0127L93.4749 35.7459ZM70.6372 46.7252L68.9041 43.1202L60.2008 47.3043L69.3136 50.4998L70.6372 46.7252ZM94.6269 55.1375L98.4016 56.4611L99.7252 52.6865L95.9505 51.3628L94.6269 55.1375ZM89.7981 68.9081L88.4744 72.6828L92.2491 74.0064L93.5727 70.2318L89.7981 68.9081ZM66.0406 60.5773L67.3642 56.8026L58.2514 53.6071L62.4356 62.3104L66.0406 60.5773ZM76.9451 83.2594L78.6783 86.8645L82.2833 85.1313L80.5502 81.5263L76.9451 83.2594ZM63.8335 89.5629L60.2285 91.296L61.9616 94.9011L65.5666 93.1679L63.8335 89.5629ZM52.9505 66.9256L56.5555 65.1925L52.3714 56.4891L49.1758 65.602L52.9505 66.9256ZM44.6313 90.6499L43.3076 94.4245L47.0823 95.7481L48.4059 91.9735L44.6313 90.6499ZM30.7952 85.7981L27.0205 84.4744L25.6969 88.2491L29.4715 89.5727L30.7952 85.7981ZM39.1962 61.8406L42.9708 63.1643L46.1663 54.0514L37.463 58.2356L39.1962 61.8406ZM16.402 72.799L12.797 74.5322L14.5301 78.1372L18.1351 76.4041L16.402 72.799ZM10.2499 60.0023L8.51678 56.3972L4.91175 58.1304L6.64488 61.7354L10.2499 60.0023ZM33.0889 49.0223L34.822 52.6274L43.5253 48.4432L34.4125 45.2477L33.0889 49.0223ZM9.09827 40.6097L5.32362 39.2861L3.99999 43.0608L7.77464 44.3844L9.09827 40.6097ZM13.9271 26.8391L15.2508 23.0644L11.4761 21.7408L10.1525 25.5154L13.9271 26.8391ZM37.6837 35.1696L36.36 38.9443L45.4729 42.1398L41.2887 33.4365L37.6837 35.1696ZM26.7797 12.4887L25.0466 8.88369L21.4416 10.6168L23.1747 14.2219L26.7797 12.4887ZM39.8914 6.18523L43.4964 4.4521L41.7633 0.847069L38.1582 2.5802L39.8914 6.18523ZM50.7744 28.8226L47.1693 30.5557L51.3535 39.259L54.549 30.1462L50.7744 28.8226ZM59.0936 5.09827L60.4172 1.32362L56.6426 -8.54506e-06L55.3189 3.77464L59.0936 5.09827ZM72.9297 9.95008L76.7043 11.2737L78.028 7.49905L74.2533 6.17542L72.9297 9.95008ZM64.5287 33.9075L66.2618 37.5125L89.056 26.5541L87.3229 22.9491L85.5897 19.3441L62.7956 30.3025L64.5287 33.9075ZM87.3229 22.9491L83.7178 24.6823L89.8699 37.479L93.4749 35.7459L97.08 34.0127L90.9279 21.216L87.3229 22.9491ZM93.4749 35.7459L91.7418 32.1408L68.9041 43.1202L70.6372 46.7252L72.3704 50.3302L95.2081 39.3509L93.4749 35.7459ZM70.6372 46.7252L69.3136 50.4998L93.3033 58.9121L94.6269 55.1375L95.9505 51.3628L71.9609 42.9505L70.6372 46.7252ZM94.6269 55.1375L90.8523 53.8139L86.0234 67.5845L89.7981 68.9081L93.5727 70.2318L98.4016 56.4611L94.6269 55.1375ZM89.7981 68.9081L91.1217 65.1335L67.3642 56.8026L66.0406 60.5773L64.717 64.3519L88.4744 72.6828L89.7981 68.9081ZM66.0406 60.5773L62.4356 62.3104L73.3401 84.9926L76.9451 83.2594L80.5502 81.5263L69.6456 58.8442L66.0406 60.5773ZM76.9451 83.2594L75.212 79.6544L62.1004 85.9579L63.8335 89.5629L65.5666 93.1679L78.6783 86.8645L76.9451 83.2594ZM63.8335 89.5629L67.4385 87.8298L56.5555 65.1925L52.9505 66.9256L49.3455 68.6587L60.2285 91.296L63.8335 89.5629ZM52.9505 66.9256L49.1758 65.602L40.8566 89.3262L44.6313 90.6499L48.4059 91.9735L56.7251 68.2492L52.9505 66.9256ZM44.6313 90.6499L45.9549 86.8752L32.1188 82.0234L30.7952 85.7981L29.4715 89.5727L43.3076 94.4245L44.6313 90.6499ZM30.7952 85.7981L34.5698 87.1217L42.9708 63.1643L39.1962 61.8406L35.4215 60.517L27.0205 84.4744L30.7952 85.7981ZM39.1962 61.8406L37.463 58.2356L14.6689 69.194L16.402 72.799L18.1351 76.4041L40.9293 65.4457L39.1962 61.8406ZM16.402 72.799L20.007 71.0659L13.8549 58.2691L10.2499 60.0023L6.64488 61.7354L12.797 74.5322L16.402 72.799ZM10.2499 60.0023L11.983 63.6073L34.822 52.6274L33.0889 49.0223L31.3557 45.4173L8.51678 56.3972L10.2499 60.0023ZM33.0889 49.0223L34.4125 45.2477L10.4219 36.8351L9.09827 40.6097L7.77464 44.3844L31.7652 52.797L33.0889 49.0223ZM9.09827 40.6097L12.8729 41.9334L17.7018 28.1627L13.9271 26.8391L10.1525 25.5154L5.32362 39.2861L9.09827 40.6097ZM13.9271 26.8391L12.6035 30.6137L36.36 38.9443L37.6837 35.1696L39.0073 31.395L15.2508 23.0644L13.9271 26.8391ZM37.6837 35.1696L41.2887 33.4365L30.3848 10.7556L26.7797 12.4887L23.1747 14.2219L34.0786 36.9027L37.6837 35.1696ZM26.7797 12.4887L28.5129 16.0937L41.6245 9.79026L39.8914 6.18523L38.1582 2.5802L25.0466 8.88369L26.7797 12.4887ZM39.8914 6.18523L36.2863 7.91837L47.1693 30.5557L50.7744 28.8226L54.3794 27.0894L43.4964 4.4521L39.8914 6.18523ZM50.7744 28.8226L54.549 30.1462L62.8682 6.4219L59.0936 5.09827L55.3189 3.77464L46.9997 27.4989L50.7744 28.8226ZM59.0936 5.09827L57.77 8.87293L71.6061 13.7247L72.9297 9.95008L74.2533 6.17542L60.4172 1.32362L59.0936 5.09827ZM72.9297 9.95008L69.155 8.62645L60.7541 32.5839L64.5287 33.9075L68.3034 35.2311L76.7043 11.2737L72.9297 9.95008Z" fill="white" mask="url(#path-1-outside-1_668_10749)"/>
</g>
<defs>
<filter id="filter0_d_668_10749" x="0" y="0" width="103.725" height="103.748" filterUnits="userSpaceOnUse" color-interpolation-filters="sRGB">
<feFlood flood-opacity="0" result="BackgroundImageFix"/>
<feColorMatrix in="SourceAlpha" type="matrix" values="0 0 0 0 0 0 0 0 0 0 0 0 0 0 0 0 0 0 127 0" result="hardAlpha"/>
<feOffset dy="4"/>
<feGaussianBlur stdDeviation="2"/>
<feComposite in2="hardAlpha" operator="out"/>
<feColorMatrix type="matrix" values="0 0 0 0 0 0 0 0 0 0 0 0 0 0 0 0 0 0 0.25 0"/>
<feBlend mode="normal" in2="BackgroundImageFix" result="effect1_dropShadow_668_10749"/>
<feBlend mode="normal" in="SourceGraphic" in2="effect1_dropShadow_668_10749" result="shape"/>
</filter>
</defs>
</svg>
