<svg width="118" height="111" viewBox="0 0 118 111" fill="none" xmlns="http://www.w3.org/2000/svg">
<g filter="url(#filter0_d_668_10738)">
<path d="M34.3726 19.7895C41.1666 19.0623 47.8913 22.57 53.268 29.094C58.6386 35.6107 62.5721 45.0452 63.7296 55.8582C64.887 66.6715 63.0394 76.7255 59.1697 84.2313C55.2955 91.7455 49.4656 96.5969 42.6715 97.3242C35.8774 98.0514 29.152 94.5439 23.7751 88.0197C18.4046 81.503 14.4718 72.0676 13.3144 61.2544C12.1572 50.4415 14.0039 40.3881 17.8735 32.8825C21.7477 25.3681 27.5785 20.5167 34.3726 19.7895Z" fill="white" stroke="#075359" stroke-width="2"/>
<path d="M34.9336 25.0328C40.5374 24.433 46.1356 27.448 50.6501 33.1101C55.1558 38.7614 58.4772 46.9416 59.4803 56.3138C60.4834 65.6859 58.9685 74.383 55.761 80.8598C52.5472 87.3492 47.7139 91.4807 42.1101 92.0805C36.5062 92.6802 30.9081 89.6654 26.3936 84.0032C21.8879 78.3519 18.5667 70.1725 17.5635 60.8004C16.5603 51.4282 18.0751 42.7304 21.2827 36.2534C24.4965 29.7642 29.3298 25.6326 34.9336 25.0328Z" fill="white" stroke="#075359" stroke-width="2"/>
<path d="M30.418 49.7623C33.4987 49.4326 36.5961 51.2127 39.1079 54.5423C41.6126 57.8626 43.4714 62.6532 44.0576 68.1289C44.6437 73.6047 43.8409 78.6809 42.0957 82.4561C40.3455 86.2418 37.6948 88.6364 34.6142 88.9661C31.5336 89.2958 28.4361 87.5165 25.9244 84.187C23.4197 80.8667 21.5607 76.0754 20.9746 70.5996C20.3885 65.1238 21.1914 60.0484 22.9366 56.2732C24.6868 52.4874 27.3373 50.0921 30.418 49.7623Z" fill="#075359" stroke="#075359"/>
<path d="M38.4152 54.2097C38.8423 54.1642 39.361 54.4228 39.8449 55.0968C40.3189 55.7571 40.6889 56.7335 40.8106 57.8701C40.9322 59.0067 40.7773 60.0393 40.4537 60.785C40.1235 61.5461 39.6712 61.9086 39.2442 61.9545C38.817 62.0002 38.2976 61.7418 37.8135 61.0676C37.3395 60.4072 36.9695 59.4308 36.8479 58.2942C36.7262 57.1577 36.8812 56.1251 37.2047 55.3793C37.5351 54.6179 37.988 54.2554 38.4152 54.2097Z" fill="white" stroke="#075359"/>
<path d="M74.5282 13.1602C81.3223 12.433 88.0469 15.9407 93.4237 22.4647C98.7942 28.9813 102.728 38.4159 103.885 49.2289C105.043 60.0422 103.195 70.0962 99.3253 77.6019C95.4511 85.1161 89.6212 89.9676 82.8272 90.6948C76.0331 91.422 69.3076 87.9146 63.9308 81.3904C58.5602 74.8737 54.6275 65.4383 53.4701 54.6251C52.3128 43.8121 54.1595 33.7588 58.0292 26.2532C61.9034 18.7388 67.7341 13.8874 74.5282 13.1602Z" fill="white" stroke="#075359" stroke-width="2"/>
<path d="M75.0891 18.4035C80.6929 17.8037 86.2912 20.8187 90.8056 26.4808C95.3113 32.1321 98.6327 40.3123 99.6358 49.6845C100.639 59.0566 99.124 67.7537 95.9165 74.2305C92.7027 80.7199 87.8695 84.8513 82.2656 85.4511C76.6617 86.0509 71.0636 83.0361 66.5491 77.3738C62.0435 71.7226 58.7222 63.5431 57.719 54.1711C56.7159 44.7989 58.2306 36.101 61.4382 29.6241C64.652 23.1348 69.4854 19.0033 75.0891 18.4035Z" fill="white" stroke="#075359" stroke-width="2"/>
<path d="M70.5735 43.133C73.6542 42.8032 76.7516 44.5833 79.2634 47.913C81.7681 51.2333 83.627 56.0238 84.2131 61.4995C84.7992 66.9753 83.9964 72.0516 82.2512 75.8268C80.501 79.6124 77.8503 82.007 74.7697 82.3368C71.6891 82.6665 68.5916 80.8872 66.0799 77.5577C63.5752 74.2374 61.7162 69.446 61.1301 63.9702C60.544 58.4945 61.3469 53.4191 63.0921 49.6439C64.8423 45.8581 67.4928 43.4627 70.5735 43.133Z" fill="#075359" stroke="#075359"/>
<path d="M78.571 47.5803C78.9981 47.5348 79.5168 47.7934 80.0007 48.4674C80.4746 49.1278 80.8447 50.1042 80.9663 51.2407C81.088 52.3773 80.933 53.4099 80.6095 54.1556C80.2793 54.9167 79.827 55.2792 79.3999 55.3252C78.9728 55.3709 78.4533 55.1124 77.9693 54.4382C77.4953 53.7779 77.1253 52.8015 77.0036 51.6649C76.882 50.5283 77.037 49.4957 77.3605 48.75C77.6908 47.9886 78.1438 47.6261 78.571 47.5803Z" fill="white" stroke="#075359"/>
</g>
<defs>
<filter id="filter0_d_668_10738" x="7.97284" y="12.0654" width="101.254" height="94.3535" filterUnits="userSpaceOnUse" color-interpolation-filters="sRGB">
<feFlood flood-opacity="0" result="BackgroundImageFix"/>
<feColorMatrix in="SourceAlpha" type="matrix" values="0 0 0 0 0 0 0 0 0 0 0 0 0 0 0 0 0 0 127 0" result="hardAlpha"/>
<feOffset dy="4"/>
<feGaussianBlur stdDeviation="2"/>
<feComposite in2="hardAlpha" operator="out"/>
<feColorMatrix type="matrix" values="0 0 0 0 0 0 0 0 0 0 0 0 0 0 0 0 0 0 0.25 0"/>
<feBlend mode="normal" in2="BackgroundImageFix" result="effect1_dropShadow_668_10738"/>
<feBlend mode="normal" in="SourceGraphic" in2="effect1_dropShadow_668_10738" result="shape"/>
</filter>
</defs>
</svg>
