<svg width="134" height="126" viewBox="0 0 134 126" fill="none" xmlns="http://www.w3.org/2000/svg">
<g filter="url(#filter0_d_550_8502)">
<ellipse cx="43.831" cy="66.6272" rx="29.9832" ry="45.5" transform="rotate(-6.10941 43.831 66.6272)" fill="white"/>
<path d="M39.6804 27.8486C46.3489 27.1349 52.9128 30.7323 58.1304 37.2765C63.3434 43.8151 67.16 53.2412 68.3123 64.0068C69.4646 74.7723 67.7294 84.7927 64.0184 92.2865C60.3041 99.7867 54.6503 104.692 47.9817 105.406C41.3132 106.119 34.7493 102.522 29.5318 95.9778C24.3188 89.4391 20.5021 80.0131 19.3498 69.2475C18.1975 58.4819 19.9327 48.4616 23.6438 40.9678C27.3581 33.4675 33.0119 28.5624 39.6804 27.8486Z" fill="white" stroke="#774EF1"/>
<ellipse cx="36.9974" cy="78.9243" rx="13.7761" ry="23" transform="rotate(-6.10941 36.9974 78.9243)" fill="#774EF1"/>
<ellipse cx="44.1806" cy="66.0869" rx="2.83625" ry="5" transform="rotate(-6.10941 44.1806 66.0869)" fill="white"/>
<ellipse cx="89.5208" cy="59.0841" rx="29.9832" ry="45.5" transform="rotate(-6.10941 89.5208 59.0841)" fill="white"/>
<path d="M85.3702 20.3055C92.0387 19.5918 98.6026 23.1892 103.82 29.7334C109.033 36.272 112.85 45.6981 114.002 56.4637C115.154 67.2292 113.419 77.2496 109.708 84.7434C105.994 92.2436 100.34 97.1488 93.6716 97.8625C87.003 98.5763 80.4392 94.9788 75.2216 88.4347C70.0086 81.896 66.1919 72.47 65.0396 61.7044C63.8873 50.9388 65.6225 40.9185 69.3336 33.4247C73.0479 25.9245 78.7017 21.0193 85.3702 20.3055Z" fill="white" stroke="#774EF1"/>
<ellipse cx="82.6873" cy="71.3812" rx="13.7761" ry="23" transform="rotate(-6.10941 82.6873 71.3812)" fill="#774EF1"/>
<ellipse cx="89.8704" cy="58.5438" rx="2.83625" ry="5" transform="rotate(-6.10941 89.8704 58.5438)" fill="white"/>
</g>
<defs>
<filter id="filter0_d_550_8502" x="9.62278" y="13.7283" width="114.106" height="106.255" filterUnits="userSpaceOnUse" color-interpolation-filters="sRGB">
<feFlood flood-opacity="0" result="BackgroundImageFix"/>
<feColorMatrix in="SourceAlpha" type="matrix" values="0 0 0 0 0 0 0 0 0 0 0 0 0 0 0 0 0 0 127 0" result="hardAlpha"/>
<feOffset dy="4"/>
<feGaussianBlur stdDeviation="2"/>
<feComposite in2="hardAlpha" operator="out"/>
<feColorMatrix type="matrix" values="0 0 0 0 0 0 0 0 0 0 0 0 0 0 0 0 0 0 0.25 0"/>
<feBlend mode="normal" in2="BackgroundImageFix" result="effect1_dropShadow_550_8502"/>
<feBlend mode="normal" in="SourceGraphic" in2="effect1_dropShadow_550_8502" result="shape"/>
</filter>
</defs>
</svg>
