<svg width="151" height="108" viewBox="0 0 151 108" fill="none" xmlns="http://www.w3.org/2000/svg">
<g filter="url(#filter0_d_550_8515)">
<ellipse cx="75.3219" cy="53.6941" rx="67.9253" ry="36.1305" transform="rotate(16.2496 75.3219 53.6941)" fill="white"/>
</g>
<ellipse cx="75.322" cy="53.6941" rx="62.867" ry="31.0722" transform="rotate(16.2496 75.322 53.6941)" fill="#C8F74D"/>
<path d="M79.4282 39.6057C87.4156 41.9337 94.151 45.6543 98.5873 49.7642C103.048 53.8971 105.07 58.3036 103.979 62.0468C102.888 65.7901 98.8151 68.4201 92.8324 69.5091C86.8826 70.5919 79.203 70.1109 71.2155 67.7828C63.2281 65.4548 56.4927 61.7343 52.0564 57.6243C47.5956 53.4914 45.5737 49.0849 46.6647 45.3417C47.7557 41.5985 51.8286 38.9684 57.8114 37.8795C63.7611 36.7967 71.4408 37.2776 79.4282 39.6057Z" stroke="#06535E"/>
<path d="M80.641 35.443C90.9275 38.4412 99.6092 43.2349 105.332 48.5374C111.08 53.8625 113.73 59.5809 112.304 64.4735C110.878 69.3659 105.57 72.7651 97.862 74.1682C90.186 75.5653 80.2886 74.9428 70.002 71.9447C59.7157 68.9465 51.0344 64.1539 45.3113 58.8515C39.5637 53.5264 36.9138 47.808 38.3397 42.9154C39.7657 38.0228 45.0732 34.6238 52.7818 33.2207C60.4576 31.8236 70.3546 32.4449 80.641 35.443Z" stroke="#06535E"/>
<path d="M81.8474 31.3053C80.6644 42.9291 86.7801 54.0764 97.2192 59.3239C85.5955 58.1409 74.4481 64.2566 69.2006 74.6957C70.3837 63.072 64.2679 51.9246 53.8288 46.6771C65.4526 47.8602 76.5999 41.7444 81.8474 31.3053Z" fill="#06535E"/>
<defs>
<filter id="filter0_d_550_8515" x="5.32166" y="14.1334" width="140.001" height="87.1215" filterUnits="userSpaceOnUse" color-interpolation-filters="sRGB">
<feFlood flood-opacity="0" result="BackgroundImageFix"/>
<feColorMatrix in="SourceAlpha" type="matrix" values="0 0 0 0 0 0 0 0 0 0 0 0 0 0 0 0 0 0 127 0" result="hardAlpha"/>
<feOffset dy="4"/>
<feGaussianBlur stdDeviation="2"/>
<feComposite in2="hardAlpha" operator="out"/>
<feColorMatrix type="matrix" values="0 0 0 0 0 0 0 0 0 0 0 0 0 0 0 0 0 0 0.25 0"/>
<feBlend mode="normal" in2="BackgroundImageFix" result="effect1_dropShadow_550_8515"/>
<feBlend mode="normal" in="SourceGraphic" in2="effect1_dropShadow_550_8515" result="shape"/>
</filter>
</defs>
</svg>
