<svg width="112" height="123" viewBox="0 0 112 123" fill="none" xmlns="http://www.w3.org/2000/svg">
<g filter="url(#filter0_d_554_633)">
<path d="M77.3307 16.4456C85.2907 19.3853 89.9384 25.7863 87.7299 34.4628C86.7196 38.4361 84.5382 40.9479 82.1226 44.1168C83.5208 45.8735 84.4548 47.8699 85.7468 49.555C90.1344 55.2694 95.8567 58.7854 94.7399 66.8233C93.8412 73.2908 89.308 76.5609 86.3542 82.0252C84.1688 86.0745 82.5736 90.5812 80.2999 94.5633C75.9066 102.269 68.6083 107.892 60.0322 110.173C48.5424 113.244 39.9423 109.894 30.089 104.168C24.4179 99.5469 20.0583 93.9723 17.938 86.8723C16.4677 81.836 16.2532 76.5167 17.3137 71.3791C19.0439 62.7175 25.3631 53.0257 28.0294 44.4951C30.9125 35.27 31.3631 22.9527 35.3814 14.1657C37.0896 10.9623 40.4833 7.98621 44.0389 7.20598C54.4689 4.91618 60.4886 10.1851 63.2029 19.6499C68.4756 16.1896 71.1442 15.5717 77.3307 16.4456Z" fill="#FEFEFE"/>
<path d="M75.1726 22.8639C88.4708 28.7778 77.2211 39.3091 71.7303 46.5734C83.0871 50.0207 76.6923 52.9136 80.5365 56.7558C82.9679 59.1851 90.6128 59.3495 87.3627 67.9855C85.8354 72.0329 82.753 74.0167 80.76 77.693C75.7926 87.5782 72.9474 98.0844 61.5903 102.472C46.7079 108.219 31.3051 101.108 25.1694 86.5673C23.8462 82.881 23.3251 78.9553 23.6402 75.0524C24.3236 67.4298 30.8719 56.3603 34.1622 47.9529C36.7176 42.9673 38.7568 17.1273 43.3089 15.1141C63.8568 6.02407 53.08 37.9332 51.2672 46.4397C57.0355 39.9333 61.6066 32.0115 67.4684 25.6711C69.9095 23.0306 71.8796 22.7811 75.1726 22.8639Z" fill="#06535E"/>
<path d="M74.1755 25.8246C82.7331 30.0444 74.2198 37.7152 70.4157 42.7164L58.0218 58.9875C51.521 46.1823 41.3555 55.8834 32.4329 60.2958C37.1865 49.5873 37.9982 47.6761 40.301 36.2582C41.339 31.9826 42.6539 16.1854 48.4976 16.755C49.9101 16.8838 51.1906 17.6394 51.9861 18.8134C53.1679 20.5536 52.7496 23.2443 52.3367 25.2079C50.6579 33.1941 48.9348 41.1876 47.3292 49.1877C49.9468 48.9892 50.6658 49.2076 53.2158 49.7293C58.3649 42.7639 64.9493 33.3878 70.924 27.039C71.4631 26.466 73.3456 26.0153 74.1755 25.8246Z" fill="#FEFEFE"/>
<path d="M50.1035 55.4848C51.7355 56.1899 53.511 57.3694 54.3138 58.9712C57.1067 64.5418 46.5974 68.595 43.0011 70.297C44.7226 72.7575 45.7888 74.4517 46.9779 77.236C49.6925 83.5909 48.9405 95.7237 41.4142 98.4011C40.1887 98.837 38.6225 97.672 37.5052 97.0576C27.537 89.7615 21.033 73.0153 33.2864 63.7771C36.234 61.5552 46.7679 56.1263 50.1035 55.4848Z" fill="#FEFEFE"/>
<path d="M55.2872 67.6482C58.0616 72.6503 57.4896 71.5896 62.4701 73.624C64.0548 74.3848 65.5085 75.6555 65.8368 77.4331C66.6873 82.0008 70.7455 82.2139 74.5578 82.8189C74.0435 83.9961 73.5126 85.1661 72.9614 86.3263C69.2501 94.1617 65.6366 97.4021 57.5699 100.294C52.5588 101.55 50.0586 101.24 45.0256 100.423C53.3767 89.8615 53.3767 83.5106 47.9039 71.6101L55.2872 67.6482Z" fill="#FEFEFE"/>
<path d="M73.4001 50.3329C78.4248 54.486 75.5244 58.2082 72.2236 62.5601C69.1974 66.5437 66.7092 70.9253 61.449 70.3338C54.7789 64.9256 64.1031 57.4236 67.6225 52.8154C69.2351 50.7041 70.8337 50.3257 73.4001 50.3329Z" fill="#FEFEFE"/>
<path d="M81.1262 60.3048C88.2629 64.2072 81.8909 70.9925 78.4653 75.1618C76.3008 77.7984 75.1234 78.9995 71.6901 79.1469C63.535 74.9275 72.7317 66.4469 76.3648 62.3456C77.783 60.7422 79.0481 60.5466 81.1262 60.3048Z" fill="#FEFEFE"/>
</g>
<defs>
<filter id="filter0_d_554_633" x="12.6508" y="6.67346" width="86.2308" height="112.664" filterUnits="userSpaceOnUse" color-interpolation-filters="sRGB">
<feFlood flood-opacity="0" result="BackgroundImageFix"/>
<feColorMatrix in="SourceAlpha" type="matrix" values="0 0 0 0 0 0 0 0 0 0 0 0 0 0 0 0 0 0 127 0" result="hardAlpha"/>
<feOffset dy="4"/>
<feGaussianBlur stdDeviation="2"/>
<feComposite in2="hardAlpha" operator="out"/>
<feColorMatrix type="matrix" values="0 0 0 0 0 0 0 0 0 0 0 0 0 0 0 0 0 0 0.25 0"/>
<feBlend mode="normal" in2="BackgroundImageFix" result="effect1_dropShadow_554_633"/>
<feBlend mode="normal" in="SourceGraphic" in2="effect1_dropShadow_554_633" result="shape"/>
</filter>
</defs>
</svg>
