<svg width="97" height="108" viewBox="0 0 97 108" fill="none" xmlns="http://www.w3.org/2000/svg">
<g filter="url(#filter0_d_668_10754)">
<path d="M66.3337 14.3347C72.9928 16.8971 76.881 22.4765 75.0334 30.0393C74.1883 33.5026 72.3633 35.6919 70.3425 38.4542C71.5122 39.9853 72.2936 41.7255 73.3744 43.1943C77.045 48.1752 81.8321 51.2399 80.8978 58.2461C80.146 63.8834 76.3536 66.7338 73.8825 71.4967C72.0544 75.0263 70.7198 78.9545 68.8177 82.4254C65.1424 89.1423 59.0368 94.0436 51.8624 96.0316C42.2504 98.708 35.0558 95.7887 26.8128 90.7972C22.0685 86.7694 18.4214 81.9103 16.6476 75.7216C15.4176 71.3318 15.2382 66.6953 16.1254 62.2171C17.5728 54.6673 22.8593 46.2195 25.0898 38.7839C27.5017 30.7429 27.8787 20.0065 31.2403 12.3474C32.6693 9.55525 35.5084 6.96113 38.4828 6.28104C47.2083 4.28516 52.2442 8.87775 54.5149 17.1277C58.9259 14.1116 61.1583 13.573 66.3337 14.3347Z" fill="#FEFEFE"/>
<path d="M64.5284 19.9292C75.6532 25.084 66.2421 34.2635 61.6486 40.5953C71.1494 43.6002 65.7997 46.1217 69.0156 49.4708C71.0496 51.5883 77.4452 51.7316 74.7262 59.2591C73.4485 62.7869 70.8699 64.5161 69.2026 67.7206C65.047 76.3369 62.6668 85.4946 53.1658 89.3194C40.7156 94.3288 27.8301 88.13 22.6972 75.4558C21.5902 72.2427 21.1543 68.8209 21.4179 65.4189C21.9896 58.7747 27.4678 49.1261 30.2203 41.7978C32.358 37.4522 34.064 14.9289 37.8721 13.1741C55.0619 5.25082 46.0463 33.0642 44.5298 40.4789C49.3554 34.8075 53.1795 27.9026 58.0832 22.376C60.1254 20.0744 61.7735 19.857 64.5284 19.9292Z" fill="#31C96E"/>
<path d="M63.6943 22.5098C70.8533 26.188 63.7313 32.8742 60.5489 37.2334L50.1805 51.416C44.7422 40.2545 36.2381 48.7104 28.7736 52.5564C32.7504 43.2224 33.4295 41.5565 35.3559 31.6042C36.2242 27.8774 37.3242 14.1079 42.2129 14.6043C43.3945 14.7166 44.4658 15.3753 45.1313 16.3985C46.12 17.9154 45.77 20.2607 45.4246 21.9723C44.0202 28.9334 42.5787 35.9009 41.2355 42.8741C43.4253 42.7011 44.0267 42.8914 46.16 43.3462C50.4676 37.2749 55.9759 29.1023 60.9742 23.5683C61.4252 23.0689 63 22.676 63.6943 22.5098Z" fill="#FEFEFE"/>
<path d="M43.5564 48.3628C44.9216 48.9774 46.407 50.0055 47.0786 51.4018C49.415 56.2573 40.6232 59.7902 37.6147 61.2738C39.0549 63.4185 39.9468 64.8952 40.9416 67.3221C43.2125 72.8614 42.5834 83.4368 36.2871 85.7705C35.262 86.1505 33.9517 85.1351 33.017 84.5995C24.6779 78.2399 19.2369 63.6431 29.4877 55.5907C31.9535 53.6541 40.7659 48.922 43.5564 48.3628Z" fill="#FEFEFE"/>
<path d="M47.8928 58.9651C50.2138 63.3251 49.7353 62.4006 53.9018 64.1738C55.2276 64.8371 56.4437 65.9446 56.7183 67.4941C57.4298 71.4755 60.8248 71.6612 64.014 72.1886C63.5838 73.2147 63.1397 74.2345 62.6786 75.2457C59.5737 82.0755 56.5509 84.8999 49.8024 87.4202C45.6103 88.5151 43.5187 88.2452 39.3083 87.5331C46.2945 78.3271 46.2946 72.7914 41.7162 62.4184L47.8928 58.9651Z" fill="#FEFEFE"/>
<path d="M63.0456 43.8723C67.2491 47.4922 64.8227 50.7367 62.0613 54.53C59.5298 58.0023 57.4482 61.8215 53.0477 61.3059C47.4677 56.5918 55.268 50.0528 58.2123 46.0361C59.5613 44.1958 60.8987 43.866 63.0456 43.8723Z" fill="#FEFEFE"/>
<path d="M69.5091 52.5642C75.4794 55.9658 70.1488 61.8801 67.2831 65.5143C65.4723 67.8124 64.4873 68.8594 61.6151 68.9879C54.7928 65.3101 62.4865 57.9179 65.5258 54.3431C66.7122 52.9455 67.7706 52.775 69.5091 52.5642Z" fill="#FEFEFE"/>
</g>
<defs>
<filter id="filter0_d_668_10754" x="11.5707" y="5.81683" width="73.4456" height="99.2295" filterUnits="userSpaceOnUse" color-interpolation-filters="sRGB">
<feFlood flood-opacity="0" result="BackgroundImageFix"/>
<feColorMatrix in="SourceAlpha" type="matrix" values="0 0 0 0 0 0 0 0 0 0 0 0 0 0 0 0 0 0 127 0" result="hardAlpha"/>
<feOffset dy="4"/>
<feGaussianBlur stdDeviation="2"/>
<feComposite in2="hardAlpha" operator="out"/>
<feColorMatrix type="matrix" values="0 0 0 0 0 0 0 0 0 0 0 0 0 0 0 0 0 0 0.25 0"/>
<feBlend mode="normal" in2="BackgroundImageFix" result="effect1_dropShadow_668_10754"/>
<feBlend mode="normal" in="SourceGraphic" in2="effect1_dropShadow_668_10754" result="shape"/>
</filter>
</defs>
</svg>
