<svg width="130" height="107" viewBox="0 0 130 107" fill="none" xmlns="http://www.w3.org/2000/svg">
<g filter="url(#filter0_d_621_542)">
<ellipse cx="64.9679" cy="52.3249" rx="60.2965" ry="46.004" transform="rotate(-6.28138 64.9679 52.3249)" fill="#FEFEFE"/>
<path d="M61.6638 22.3144C72.7676 21.0922 83.1435 23.4273 90.9367 28.1211C98.7285 32.8142 103.869 39.8088 104.765 47.944C105.66 56.0793 102.164 64.0244 95.5795 70.2999C88.9938 76.5766 79.3743 81.1125 68.2703 82.3347C57.1665 83.5568 46.7915 81.2218 38.9983 76.5279C31.2065 71.8349 26.0658 64.8404 25.1703 56.7051C24.2749 48.5699 27.7712 40.6246 34.3556 34.3491C40.9412 28.0727 50.5601 23.5367 61.6638 22.3144Z" stroke="#31243D" stroke-width="3"/>
<path d="M61.665 22.3144C73.9959 20.9572 86.0294 32.8512 87.8952 49.8009C89.7609 66.7507 80.6025 80.9773 68.2715 82.3347C55.9404 83.692 43.907 71.798 42.0413 54.8482C40.1757 37.8984 49.3339 23.6717 61.665 22.3144Z" stroke="#31243D" stroke-width="3"/>
<path d="M25.1707 56.7056C24.709 52.5112 28.0756 47.7971 35.0858 43.6567C41.9642 39.5942 51.8412 36.4237 63.081 35.1864C74.321 33.9492 84.6518 34.8954 92.2493 37.3646C99.9922 39.8811 104.304 43.75 104.765 47.9445C105.227 52.1389 101.86 56.8531 94.8502 60.9934C87.9716 65.0559 78.0939 68.2266 66.854 69.4638C55.6143 70.7009 45.284 69.7546 37.6866 67.2855C29.9438 64.7691 25.6325 60.9 25.1707 56.7056Z" stroke="#31243D" stroke-width="3"/>
<path d="M68.8051 83.1001L62.0566 21.7909" stroke="#31243D" stroke-width="3"/>
<path d="M25.2566 56.8639L105.613 48.0189" stroke="#31243D" stroke-width="3"/>
</g>
<defs>
<filter id="filter0_d_621_542" x="0.81897" y="6.11757" width="128.298" height="100.415" filterUnits="userSpaceOnUse" color-interpolation-filters="sRGB">
<feFlood flood-opacity="0" result="BackgroundImageFix"/>
<feColorMatrix in="SourceAlpha" type="matrix" values="0 0 0 0 0 0 0 0 0 0 0 0 0 0 0 0 0 0 127 0" result="hardAlpha"/>
<feOffset dy="4"/>
<feGaussianBlur stdDeviation="2"/>
<feComposite in2="hardAlpha" operator="out"/>
<feColorMatrix type="matrix" values="0 0 0 0 0 0 0 0 0 0 0 0 0 0 0 0 0 0 0.25 0"/>
<feBlend mode="normal" in2="BackgroundImageFix" result="effect1_dropShadow_621_542"/>
<feBlend mode="normal" in="SourceGraphic" in2="effect1_dropShadow_621_542" result="shape"/>
</filter>
</defs>
</svg>
